<?xml version="1.0" encoding="UTF-8" standalone="no"?>
<svg viewBox="0 0 737 265" version="1.1" xmlns="http://www.w3.org/2000/svg" xmlns:xlink="http://www.w3.org/1999/xlink">
    <!-- Generator: Sketch 3.6.1 (26313) - http://www.bohemiancoding.com/sketch -->
    <title>copia-logo</title>
    <desc>Created with Sketch.</desc>
    <defs></defs>
    <g id="Page-1" stroke="none" stroke-width="1" fill="none" fill-rule="evenodd">
        <g id="logo-blue" transform="translate(0.000000, 3.000000)">
            <path d="M721,200 C728.179702,200 734,194.179702 734,187 C734,179.820298 728.179702,174 721,174 C713.820298,174 708,179.820298 708,187 C708,194.179702 713.820298,200 721,200 Z" id="Oval-2" stroke="#FFFFFF" stroke-width="6"></path>
            <path d="M605.666,83.583 C599.337,83.583 593.438,84.783 587.965,87.175 C582.493,89.57 577.747,92.798 573.729,96.858 C569.708,100.92 566.524,105.689 564.173,111.162 C561.82,116.634 560.646,122.447 560.646,128.605 C560.646,134.761 561.82,140.577 564.173,146.049 C566.524,151.522 569.708,156.29 573.729,160.35 C577.747,164.413 582.493,167.641 587.965,170.033 C593.438,172.428 599.337,173.625 605.666,173.625 C611.908,173.625 617.765,172.428 623.237,170.033 C628.71,167.641 633.479,164.389 637.541,160.285 C641.601,156.182 644.806,151.415 647.159,145.984 C649.51,140.556 650.686,134.761 650.686,128.605 C650.686,122.447 649.51,116.655 647.159,111.224 C644.806,105.795 641.601,101.027 637.541,96.923 C633.479,92.819 628.71,89.57 623.237,87.175 C617.765,84.783 611.908,83.583 605.666,83.583 L605.666,83.583 Z M650.686,187.093 L650.686,184.529 C644.273,189.659 637.305,193.594 629.78,196.329 C622.255,199.066 614.217,200.433 605.666,200.433 C585.828,200.433 568.896,193.422 554.873,179.396 C540.849,165.373 533.839,148.444 533.839,128.605 C533.839,108.767 540.849,91.837 554.873,77.811 C568.896,63.789 585.828,56.776 605.666,56.776 C625.333,56.776 642.263,63.789 656.46,77.811 C670.483,91.837 677.493,108.767 677.493,128.605 L677.493,187.093 C677.493,190.77 676.19,193.913 673.582,196.521 C670.974,199.131 667.831,200.433 664.156,200.433 C660.39,200.433 657.206,199.131 654.6,196.521 C651.99,193.913 650.686,190.77 650.686,187.093 L650.686,187.093 Z" id="Fill-7" fill="#FFFFFF"></path>
            <path d="M492,26 C499.179702,26 505,20.1797017 505,13 C505,5.82029825 499.179702,0 492,0 C484.820298,0 479,5.82029825 479,13 C479,20.1797017 484.820298,26 492,26 Z" id="Oval-1" stroke="#FFFFFF" stroke-width="6"></path>
            <path d="M479.453,186.965 L479.453,70.243 C479.453,66.482 480.757,63.297 483.365,60.687 C485.973,58.082 489.115,56.776 492.793,56.776 C496.469,56.776 499.611,58.082 502.221,60.687 C504.827,63.297 506.175,66.482 506.26,70.243 L506.26,186.965 C506.175,190.728 504.827,193.913 502.221,196.521 C499.611,199.131 496.469,200.433 492.793,200.433 C489.115,200.433 485.973,199.131 483.365,196.521 C480.757,193.913 479.453,190.728 479.453,186.965" id="Fill-6" fill="#FFFFFF"></path>
            <path d="M334.871566,184.74042 L334.871566,248.67456 C334.871566,252.517362 333.562421,255.697886 330.948139,258.22013 C328.333858,260.739377 325.142189,262 321.369123,262 C317.512857,262 314.319184,260.739377 311.791109,258.22013 C309.263035,255.697886 308,252.517362 308,248.67456 L308,128.750599 C308,108.934252 315.026884,92.0227313 329.083659,78.0120405 C343.140435,64.0053454 360.113216,57 380,57 C399.714369,57 416.685146,64.0053454 430.916341,78.0120405 C437.943225,84.9324787 443.212887,92.6410556 446.730338,101.139769 C450.242778,109.639482 452,118.842426 452,128.750599 C452,148.736761 444.973116,165.65028 430.916341,179.486161 C423.715038,186.577413 415.891239,191.85165 407.449956,195.31087 C399.006669,198.769091 389.854679,200.5002 380,200.5002 C362.771604,200.5002 347.728459,195.245941 334.871566,184.74042 Z M334.871566,128.750599 C334.871566,134.89988 336.048394,140.709532 338.407061,146.175559 C340.763724,151.642586 343.955393,156.405381 347.986078,160.46095 C352.013755,164.519515 356.770184,167.743992 362.256366,170.133381 C367.742548,172.525767 373.654754,173.72146 380,173.72146 C386.256032,173.72146 392.128141,172.525767 397.613321,170.133381 C403.099503,167.743992 407.878987,164.495541 411.950771,160.396021 C416.020549,156.297499 419.234271,151.535702 421.592939,146.11063 C423.948599,140.688555 425.128434,134.89988 425.128434,128.750599 C425.128434,122.599321 423.948599,116.813643 421.592939,111.388571 C419.234271,105.965496 416.020549,101.2027 411.950771,97.1031799 C407.878987,93.0036594 403.099503,89.7582057 397.613321,87.3658198 C392.128141,84.9764306 386.256032,83.7777404 380,83.7777404 C373.654754,83.7777404 367.742548,84.9764306 362.256366,87.3658198 C356.770184,89.7582057 352.013755,92.9826823 347.986078,97.0382509 C343.955393,101.095817 340.763724,105.859612 338.407061,111.326638 C336.048394,116.792666 334.871566,122.599321 334.871566,128.750599 Z" id="Fill-4" fill="#FFFFFF"></path>
            <path d="M215.741,83.583 C209.412,83.583 203.513,84.783 198.04,87.175 C192.568,89.57 187.822,92.798 183.804,96.858 C179.784,100.92 176.599,105.689 174.249,111.162 C171.896,116.634 170.721,122.447 170.721,128.605 C170.721,134.761 171.896,140.577 174.249,146.049 C176.599,151.522 179.784,156.29 183.804,160.35 C187.822,164.413 192.568,167.641 198.04,170.033 C203.513,172.428 209.412,173.625 215.741,173.625 C221.983,173.625 227.84,172.428 233.313,170.033 C238.785,167.641 243.554,164.389 247.616,160.285 C251.676,156.182 254.881,151.415 257.234,145.984 C259.585,140.556 260.761,134.761 260.761,128.605 C260.761,122.447 259.585,116.655 257.234,111.224 C254.881,105.795 251.676,101.027 247.616,96.923 C243.554,92.819 238.785,89.57 233.313,87.175 C227.84,84.783 221.983,83.583 215.741,83.583 L215.741,83.583 Z M287.569,128.605 C287.569,148.613 280.558,165.545 266.535,179.396 C252.338,193.422 235.408,200.433 215.741,200.433 C195.903,200.433 178.971,193.422 164.948,179.396 C150.924,165.373 143.914,148.444 143.914,128.605 C143.914,108.767 150.924,91.837 164.948,77.811 C178.971,63.789 195.903,56.776 215.741,56.776 C235.408,56.776 252.338,63.789 266.535,77.811 C273.545,84.824 278.784,92.562 282.247,101.027 C285.709,109.494 287.483,118.686 287.569,128.605 L287.569,128.605 Z" id="Fill-2" fill="#FFFFFF"></path>
            <path d="M109.538,159.773 C113.385,159.773 116.569,161.036 119.094,163.556 C121.614,166.08 122.878,169.264 122.878,173.111 C122.878,176.877 121.465,180.168 118.645,182.989 C105.39,194.62 89.785,200.433 71.827,200.433 C51.989,200.433 35.059,193.422 21.036,179.396 C7.01,165.373 0,148.444 0,128.605 C0,108.767 7.01,91.837 21.036,77.811 C35.059,63.789 51.989,56.776 71.827,56.776 C89.869,56.776 105.476,62.593 118.645,74.22 C121.722,76.957 123.262,80.336 123.262,84.354 C123.262,88.201 122,91.409 119.478,93.972 C116.954,96.539 113.769,97.821 109.923,97.821 C106.671,97.821 103.767,96.795 101.201,94.744 C96.84,91.066 92.263,88.287 87.476,86.406 C82.687,84.525 77.471,83.583 71.827,83.583 C65.586,83.583 59.726,84.759 54.256,87.11 C48.783,89.463 43.994,92.671 39.89,96.73 C35.786,100.793 32.558,105.561 30.207,111.032 C27.854,116.504 26.677,122.364 26.677,128.605 C26.677,134.847 27.854,140.706 30.207,146.176 C32.558,151.649 35.786,156.417 39.89,160.477 C43.994,164.539 48.783,167.747 54.256,170.098 C59.726,172.451 65.586,173.625 71.827,173.625 C77.471,173.625 82.687,172.708 87.476,170.867 C92.263,169.03 96.796,166.272 101.073,162.594 C103.466,160.799 106.286,159.859 109.538,159.773" id="Fill-1" fill="#FFFFFF"></path>
        </g>
    </g>
</svg>